{
	"asset":{
		"version":"2.0",
		"generator":"Created using the official Cinema 4D glTF Exporter 1.000x284978"
	},
	"scenes":[{
		"nodes":[0,
		1]
	}],
	"meshes":[{
		"name":"sp",
		"primitives":[{
			"attributes":{
				"POSITION":1
			},
			"indices":0
		}]
	},
	{
		"name":"text",
		"primitives":[{
			"attributes":{
				"POSITION":3
			},
			"indices":2
		}]
	}],
	"nodes":[{
		"name":"sp",
		"mesh":0,
		"translation":[0.0,
		0.0,
		41.3347282409668],
		"rotation":[0.0,
		0.0,
		0.0,
		-1.0],
		"scale":[1.0,
		1.0,
		1.0]
	},
	{
		"name":"text",
		"mesh":1
	}],
	"accessors":[{
		"bufferView":0,
		"type":"SCALAR",
		"componentType":5123,
		"count":2652,
		"byteOffset":0,
		"min":[0],
		"max":[541]
	},
	{
		"bufferView":1,
		"type":"VEC3",
		"componentType":5126,
		"count":542,
		"byteOffset":0,
		"min":[-59.69014358520508,
		-30.37892723083496,
		-127.3223876953125],
		"max":[56.30023193359375,
		39.670494079589847,
		129.49082946777345]
	},
	{
		"bufferView":2,
		"type":"SCALAR",
		"componentType":5123,
		"count":70104,
		"byteOffset":0,
		"min":[0],
		"max":[11772]
	},
	{
		"bufferView":3,
		"type":"VEC3",
		"componentType":5126,
		"count":11773,
		"byteOffset":0,
		"min":[-35.844112396240237,
		-0.9539848566055298,
		-2.9811692237854006],
		"max":[34.97737503051758,
		7.845255374908447,
		0.8560411334037781]
	}],
	"bufferViews":[{
		"buffer":0,
		"byteOffset":0,
		"byteLength":5304,
		"target":34963
	},
	{
		"buffer":0,
		"byteOffset":5304,
		"byteLength":6504,
		"target":34962
	},
	{
		"buffer":1,
		"byteOffset":0,
		"byteLength":140208,
		"target":34963
	},
	{
		"buffer":1,
		"byteOffset":140208,
		"byteLength":141276,
		"target":34962
	}],
	"buffers":[{
		"uri":"data:application/octet-stream;base64,",
		"byteLength":11808
	},
	{
		"uri":"data:application/octet-stream;base64,",
		"byteLength":281484
	}]
}