{
	"scenes":[{
		"nodes":[0]
	}],
	"asset":{
		"version":"2.0",
		"generator":"Created using the official Cinema 4D glTF Exporter 1.000x284978"
	},
	"nodes":[{
		"name":"yz",
		"mesh":0,
		"translation":[0.0,
		0.0,
		150.0],
		"rotation":[0.0,
		0.0,
		0.0,
		-1.0],
		"scale":[1.0,
		1.0,
		1.0]
	}],
	"meshes":[{
		"name":"yz",
		"primitives":[{
			"attributes":{
				"POSITION":1,
				"NORMAL":2,
				"TEXCOORD_0":3
			},
			"indices":0
		}]
	}],
	"accessors":[{
		"min":[0],
		"bufferView":0,
		"byteOffset":0,
		"type":"SCALAR",
		"componentType":5123,
		"count":360000,
		"max":[61998]
	},
	{
		"min":[-56.14727020263672,
		-55.2227897644043,
		-150.18283081054688],
		"bufferView":1,
		"byteOffset":0,
		"type":"VEC3",
		"componentType":5126,
		"count":61999,
		"max":[51.41237258911133,
		63.14472198486328,
		151.0760040283203]
	},
	{
		"min":[-0.9999927282333374,
		-0.9999653697013855,
		-0.9907851219177246],
		"bufferView":1,
		"byteOffset":12,
		"type":"VEC3",
		"componentType":5126,
		"count":61999,
		"max":[0.9999856948852539,
		0.9999898672103882,
		0.9796852469444275]
	},
	{
		"min":[0.0,
		0.0],
		"bufferView":1,
		"byteOffset":24,
		"type":"VEC2",
		"componentType":5126,
		"count":61999,
		"max":[1.0,
		1.0]
	}],
	"bufferViews":[{
		"buffer":0,
		"byteOffset":0,
		"byteLength":720000,
		"target":34963
	},
	{
		"buffer":0,
		"byteOffset":720000,
		"byteLength":1983968,
		"target":34962,
		"byteStride":32
	}],
	"buffers":[{
		"uri":"data:application/octet-stream;base64,",
		"byteLength":2703968
	}]
}